<?xml version="1.0" standalone="no"?>
<!DOCTYPE svg PUBLIC "-//W3C//DTD SVG 20010904//EN"
 "http://www.w3.org/TR/2001/REC-SVG-20010904/DTD/svg10.dtd">
<svg version="1.0" xmlns="http://www.w3.org/2000/svg"
 width="161.000000px" height="31.000000px" viewBox="0 0 161.000000 31.000000"
 preserveAspectRatio="xMidYMid meet">
<metadata>
Created by potrace 1.15, written by Peter Selinger 2001-2017
</metadata>
<g transform="translate(0.000000,31.000000) scale(0.100000,-0.100000)"
fill="#000000" stroke="none">
<path d="M1593 15303 c14 -4 17 -16 17 -68 0 -58 -2 -64 -22 -68 -13 -2 2 -5
32 -5 42 -1 50 1 33 8 -21 8 -23 16 -23 75 0 65 0 65 -27 64 -17 -1 -21 -3
-10 -6z"/>
<path d="M2080 15235 c0 -43 4 -75 10 -75 6 0 10 8 10 18 0 31 11 33 32 7 28
-36 43 -31 18 6 -21 29 -21 31 -4 50 9 10 14 22 10 26 -4 4 -18 -6 -31 -22
l-24 -30 -1 48 c0 26 -4 47 -10 47 -6 0 -10 -32 -10 -75z"/>
<path d="M1200 15230 l0 -70 28 0 c38 0 60 19 68 57 5 26 1 37 -19 57 -15 14
-38 26 -52 26 -24 0 -25 -2 -25 -70z m72 25 c15 -33 -3 -75 -32 -75 -17 0 -20
6 -20 50 0 44 3 50 20 50 12 0 25 -10 32 -25z"/>
<path d="M1328 15245 c-8 -18 -9 -35 -2 -53 8 -22 16 -27 43 -27 20 0 36 6 39
13 3 11 0 11 -16 1 -17 -10 -23 -10 -36 0 -26 22 -19 31 24 31 22 0 40 5 40
11 0 51 -71 69 -92 24z m62 0 c11 -13 8 -15 -20 -15 -28 0 -31 2 -20 15 7 8
16 15 20 15 4 0 13 -7 20 -15z"/>
<path d="M1460 15256 c-15 -19 -7 -20 20 -3 17 10 22 9 30 -3 5 -8 6 -16 2
-17 -4 -1 -19 -4 -34 -7 -22 -5 -28 -12 -28 -32 0 -29 25 -42 51 -25 12 7 19
7 19 1 0 -5 7 -10 16 -10 12 0 14 3 6 13 -6 7 -12 30 -14 52 -3 35 -7 40 -29
43 -14 2 -31 -4 -39 -12z m50 -66 c-6 -11 -17 -20 -25 -20 -8 0 -15 9 -15 20
0 15 7 20 25 20 23 0 24 -2 15 -20z"/>
<path d="M1710 15256 c-15 -20 2 -46 31 -46 23 0 34 -19 20 -33 -9 -9 -17 -8
-32 1 -22 14 -35 10 -24 -7 7 -13 54 -14 73 -2 23 14 9 45 -26 55 -17 5 -32
13 -32 18 0 16 30 20 47 7 14 -12 16 -12 11 1 -6 21 -52 24 -68 6z"/>
<path d="M1950 15194 c0 -43 4 -74 10 -74 6 0 10 10 10 23 0 20 4 23 30 19 24
-3 30 0 35 21 4 13 5 38 3 53 -3 27 -7 29 -45 30 l-43 2 0 -74z m65 20 c0 -32
-3 -39 -20 -39 -24 0 -33 48 -14 71 20 24 34 10 34 -32z"/>
<path d="M1860 15175 c0 -8 5 -15 10 -15 6 0 10 7 10 15 0 8 -4 15 -10 15 -5
0 -10 -7 -10 -15z"/>
</g>
</svg>
